<?xml version="1.0" encoding="UTF-8"?>
<svg id="_Слой_1" data-name="Слой 1" xmlns="http://www.w3.org/2000/svg" viewBox="0 0 408 371.48">
  <defs>
    <style>
      .cls-1 {
        fill: #38405f;
      }
    </style>
  </defs>
  <path class="cls-1" d="M408,38.87v15c-2.6,3.56-3.11,8.3-5.17,12.33-1.75,3.42-5.1,7.36-7.43,10.57-17.61,24.22-38.78,47.91-57.37,71.63-56.2,71.68-111.73,144.21-169.7,214.3-15.46,10.98-34.16,11.84-50.27,1.61-38.38-41.26-72.76-86.53-110.06-128.94l-8-16.5v-17c3.79-12.74,10.46-24.53,22.67-30.83,19.56-10.08,40.04-5.67,54.84,9.81,19.9,20.83,37.18,47.07,56.97,68.03,1.12,1.18,5.7,6.31,6.98,5.99,57.99-71.23,112.84-145.04,170.56-216.47,8.78-10.87,21.88-30.61,34.7-35.3,22.7-8.3,45.87.46,56.76,21.79l4.51,13.99Z"/>
</svg>