<?xml version="1.0" encoding="UTF-8"?>
<svg id="_Слой_1" xmlns="http://www.w3.org/2000/svg" version="1.1" xmlns:xlink="http://www.w3.org/1999/xlink" viewBox="0 0 128 128">
  <!-- Generator: Adobe Illustrator 29.3.1, SVG Export Plug-In . SVG Version: 2.1.0 Build 151)  -->
  <defs>
    <style>
      .st0 {
        fill: #fff;
      }
    </style>
  </defs>
  <path class="st0" d="M97.8,41.8v.2l15.1,15.1c.6.8.6,1.8,0,2.6-3.3.2-6.5-.4-9.6.7-1.5.5-2.8,1.4-3.9,2.4-1.2-1.4-2.6-2.7-3.9-3.9l-3.2,3.2c-2.2-1.3-4.6-2.2-7-2.8-9.3-2.1-19.5,1.2-25.1,9-5.5,7.7-6.1,19.2-1.8,27.6h0c0,0-28.6,28.7-28.6,28.7-.5.4-1.2.8-1.9.9-2.4.5-5.5.8-8,1.1-4.7.5-9.5.9-14.3,1.1-1.8,0-3.7,0-5.5,0v-3.2c.2-7.8.9-16.5,2.1-24.2.2-1,.4-1.7,1.1-2.5L68.9,32.3l-7.7-7.7c-.7-.7-.7-1.9,0-2.7l7-7c.8-.7,2-.6,2.8.1l15,15h0l17.6-17.5v-3.8c0-2.1-.2-4.2-.2-6.3s.6-1.7,1.5-2.1c6.9-.2,13.8,0,20.7,0,2.7.3,2.1,2.4,2.1,4.3,0,5,.2,9.9.3,14.9,0,2.9.2,4.9-3.3,5.1-3,.2-6.2-.3-9.2-.2-5.9,5.7-11.5,11.7-17.4,17.4h-.2c0,0-.2,0-.2,0Z"/>
  <path class="st0" d="M107,70.4h14.5c.5,0,.9.5.7,1.1-8.9,12.3-17.8,24.8-26.8,37.1-4,5.5-8,11.1-12.2,16.5-.6.7-1.4,2-2,2.6s-.6.3-.9.4c-3.2-.3-6.8.2-10,0-.5,0-1.4-.3-1.3-1,10.6-14.4,21.5-28.5,31.8-43.1,1.7-2.3,3.4-4.7,5-7.1.9-1.4,2.1-2.7,1.4-4.5,0-.2-.7-1.1-.7-1.2,0-.2.3-.6.6-.6h0v-.2Z"/>
  <path class="st0" d="M128,109.6c-.7-8-6.6-13.2-14.7-12.7h0c-16.4,1.1-16.6,27.2-.6,28.8,10,1,16.1-6.5,15.3-16.1ZM113.4,121c-5-1.2-5-11-3.9-14.8.6-2,1.9-4.6,4.3-4.9,4.7-.6,6,6.2,6,9.6s-1.2,11.3-6.4,10.1Z"/>
  <path class="st0" d="M78.5,69.3c-16.2,1-16.7,26.1-1.7,28.6,7.9,1.3,14.7-2.9,16.1-10.9,1.7-9.7-3.9-18.3-14.4-17.7ZM79.2,93.7c-4.5-.3-5.2-7.5-5.1-11,0-3,1.2-8.4,4.9-8.9h0c4.2-.4,5.8,5.2,5.9,8.4.2,3.7-.5,11.9-5.7,11.5Z"/>
</svg>