<?xml version="1.0" encoding="UTF-8"?>
<svg id="_Слой_1" xmlns="http://www.w3.org/2000/svg" version="1.1" viewBox="0 0 128 128">
  <!-- Generator: Adobe Illustrator 29.3.1, SVG Export Plug-In . SVG Version: 2.1.0 Build 151)  -->
  <defs>
    <style>
      .st0 {
        fill: #fff;
      }
    </style>
  </defs>
  <path class="st0" d="M105.3.1h20.5c2.5.3,1.9,2.5,1.9,4.3,0,3.8,0,7.7.1,11.5,0,1.9.5,5.3-.2,7-.5,1.2-1.8,1.5-2.9,1.5-3,.2-6.2-.3-9.2-.2l-17.6,17.6,15.2,15.3c.6.8.6,1.8,0,2.6-.7.9-2,2.1-2.9,3-1.1,1.2-3.5,3.8-5,4.2-1.5.5-2.7-.9-3.6-1.9-1-1-1.9-2.1-2.8-3.1-1-1-2.1-2-3.1-3L29.7,124.7c-.7.6-1.4.9-2.3,1-2.4.4-5,.7-7.5,1-6.6.7-13.2,1.1-19.8,1.2-.2-.1,0-.5,0-.7.3-8.9.7-17.8,2.1-26.7.2-.9.4-1.7,1-2.4L69,32.3l-7.9-7.9c-.6-.9-.6-1.9,0-2.7,2.3-2,4.4-4.7,6.7-6.7,1-.8,2-.9,3,0l15.1,15.1,17.6-17.6c0-.2,0-.7,0-.9-.1-2.9-.2-5.9-.2-8.8,0-.2,0-.3,0-.5,0-1.1.9-2,1.9-2.1h0Z"/>
</svg>