<?xml version="1.0" encoding="UTF-8"?>
<svg id="_Слой_1" data-name="Слой 1" xmlns="http://www.w3.org/2000/svg" viewBox="0 0 3724.23 3717.09">
  <path d="M3063.72.53l595.41-.53c73.33,9.87,55.47,74.04,54.94,126.87-1.13,111.56.25,223.09,4.01,334.18,1.83,54.18,15.74,154.14-5.56,202.27-15.04,33.96-51.15,42.42-85.37,44.63-88.61,5.71-180.37-7.81-268.94-4.94l-512,511.96,441.92,444.05c18.05,22.74,17.82,53.09,0,75.91-21.56,27.61-58.43,62.13-83.9,88.1-33.06,33.72-102.29,109.32-144.95,123.05-44.54,14.33-78.16-27.2-106.13-56.08-28.47-29.39-54.46-61.64-82.92-91.08-29.17-30.18-59.94-58.76-91.05-86.92l-1913.95,1912.02c-20.96,17.72-41.33,25.29-68.3,29.7-70.43,11.52-146.65,20.2-217.77,28.23-191.62,21.63-384.41,32.39-577.11,35.15-4.62-3.26.04-14.79.21-20.04,8.22-260.21,20.59-518.31,62.16-775.84,4.43-27.42,11.69-48.83,29.71-70.29L2006.13,936.97l-228.79-229.17c-18.63-24.82-16.6-55.14,2.87-78.78,66.93-59.04,127.36-138.25,195.01-194.99,28-23.49,58.98-25.96,87.99-2.1l439.68,437.9,512.24-511.89c2.12-4.66,1.33-19.05,1.12-25.04-3-85.22-5.88-170.52-6-256,0-5.3-2.32-9.98-2.14-15.8.9-30.56,24.93-57.66,55.62-60.56Z"/>
</svg>