<?xml version="1.0" encoding="UTF-8"?>
<svg id="_Слой_1" data-name="Слой_1" xmlns="http://www.w3.org/2000/svg" version="1.1" viewBox="0 0 128 128">
  <!-- Generator: Adobe Illustrator 29.3.1, SVG Export Plug-In . SVG Version: 2.1.0 Build 151)  -->
  <defs>
    <style>
      .st0 {
        fill: #fff;
      }
    </style>
  </defs>
  <path class="st0" d="M61.4,0C20.3,0,7.9,2.6,4.2,4.2c-1,.4-1.6,1.4-1.6,2.5v68c0,1.5.4,2.9,1.1,4.1,12.4,20.4,39.3,38.4,51.5,45.9l2.9-3.9c4.4-5.8,7-9.5,10-13.5h0s-.1,0-.1,0h-.1c-2.3-1-4.4-2.3-6.3-3.9v6.1c.5.1-32.5-18.5-44.1-40V14.3s0-4.1,44.1-4.1v54.5c1.9-1.6,4.1-2.9,6.4-3.9,3-1.2,6.1-1.8,9.3-1.8,3.2,0,6.4.6,9.4,1.8,3,1.2,5.7,3,7.9,5.3h0c.2.3.3.6.5.9.7-1.8,1.4-3.6,3.3-4.9,2.4-1.6,4.9-2.1,6.6-2.1h15.5V6.6c0-1.1-.6-2-1.6-2.5-3.7-1.6-16.1-4.2-57.3-4.2"/>
  <path class="st0" d="M104.9,70.6h14.1c.6.2.8.5.7,1-22.9,31.9-36.5,50.5-40.7,55.7-.2.5-.7.7-1.5.7h-9c-1.1,0-1.7-.3-1.9-.9,23.7-31.7,36.3-49.1,38-52.3.2-.4.4-.8.4-1.3s-.3-1.3-1-2.3c.1-.4.4-.7,1-.7M63.7,84c0-2.3.3-4.3,1-6.1.7-1.8,1.6-3.3,2.8-4.5,1.2-1.3,2.6-2.2,4.3-2.8,1.6-.7,3.4-1,5.4-1s3.8.3,5.5,1c1.7.6,3.1,1.6,4.2,2.9,1.2,1.2,2.2,2.7,2.8,4.5.7,1.7,1,3.8,1,6s-.3,4.3-1,6.1c-.7,1.7-1.6,3.2-2.9,4.5-1.2,1.2-2.6,2.2-4.2,2.8-1.7.6-3.5,1-5.5,1s-3.7-.3-5.4-1c-1.7-.7-3.1-1.6-4.3-2.9-1.2-1.3-2.1-2.8-2.8-4.5-.7-1.8-1-3.8-1-6.1h0ZM82.6,84c0-1.6-.1-2.9-.4-4.2-.2-1.2-.6-2.2-1.1-3.1-.4-.9-1-1.5-1.7-2-.7-.5-1.4-.7-2.2-.7s-1.6.2-2.3.7c-.6.4-1.2,1.1-1.7,2-.4.8-.8,1.8-1.1,3.1-.2,1.2-.4,2.6-.4,4.2s.1,2.9.4,4.2c.3,1.2.7,2.3,1.1,3.1.5.9,1,1.5,1.7,2,.7.4,1.4.7,2.3.7.8,0,1.5-.2,2.2-.7.7-.4,1.2-1.1,1.7-2,.5-.9.8-1.9,1.1-3.1.3-1.2.4-2.6.4-4.2M98.4,111.5c0-2.3.3-4.3,1-6.1.7-1.8,1.6-3.3,2.8-4.5,1.2-1.3,2.6-2.2,4.3-2.9,1.7-.7,3.5-1,5.4-1s3.8.3,5.5,1c1.7.6,3.1,1.6,4.2,2.9,1.2,1.2,2.2,2.7,2.9,4.5.7,1.7,1,3.8,1,6s-.3,4.3-1,6c-.7,1.7-1.6,3.2-2.9,4.5-1.2,1.2-2.6,2.2-4.2,2.9-1.7.6-3.5,1-5.5,1s-3.7-.3-5.4-1c-1.7-.7-3.1-1.6-4.3-2.9-1.2-1.3-2.1-2.8-2.8-4.5-.7-1.8-1-3.8-1-6.1h0ZM117.3,111.3c0-1.6-.1-2.9-.4-4.2-.2-1.2-.6-2.2-1.1-3.1-.4-.9-1-1.5-1.7-2-.6-.5-1.4-.7-2.2-.7s-1.5.2-2.2.7c-.7.4-1.3,1.1-1.7,2-.4.8-.8,1.8-1.1,3.1-.2,1.2-.4,2.6-.4,4.2,0,1.6.1,2.9.4,4.1.3,1.2.7,2.3,1.1,3.1.5.9,1.1,1.5,1.7,2,.7.4,1.4.7,2.2.7.8,0,1.6-.2,2.2-.7.7-.4,1.2-1.1,1.7-2,.5-.9.8-1.9,1.1-3.1.3-1.2.4-2.6.4-4.2"/>
</svg>