<svg aria-hidden="true" data-prefix="faga" data-icon="Def" width="14" height="14" xmlns="http://www.w3.org/2000/svg" viewBox="0 0 15 15" class="h-4 w-4 fill-current text-white"><path fill="currentColor" d="M13.442.726a.291.291 0 00-.175-.268C12.859.286 11.503 0 7 0S1.143.286.735.458a.291.291 0 00-.176.269v7.44a.868.868 0 00.125.453c1.579 2.6 5.347 4.855 6.16 5.339a.292.292 0 00.3 0c.79-.482 4.56-2.688 6.169-5.335a.868.868 0 00.127-.455zM7 11.968c.059.013-3.56-2.017-4.824-4.368V1.565s0-.452 4.824-.452z"></path></svg>