<?xml version="1.0" encoding="UTF-8"?>
<svg id="_Слой_1" data-name="Слой_1" xmlns="http://www.w3.org/2000/svg" version="1.1" viewBox="0 0 128 128">
  <!-- Generator: Adobe Illustrator 29.3.1, SVG Export Plug-In . SVG Version: 2.1.0 Build 151)  -->
  <defs>
    <style>
      .st0 {
        fill: #fff;
      }
    </style>
  </defs>
  <path class="st0" d="M71.4,0c6.8,0,13.6.3,20.4.6,8.3.4,17.4.7,25.5,2.5s5.1.9,5.4,3v69.2c-.2,2.4-1.8,4.6-3.1,6.5-6.9,10.1-16.6,19-26.2,26.5-7.8,6.1-16,11.7-24.5,16.9-1.2.7-2.4,1.6-3.6,2.2s-1.7.6-2.8,0c-1.5-.8-3.4-2-4.9-2.9-16.6-10.2-35.1-23.8-47-39.4s-5.3-6.8-5.5-9.9V6.5c.1-2.4,3.2-2.9,5.1-3.4,7.2-1.7,15.4-2,22.8-2.4S48.8.1,56.6,0s9.9,0,14.8,0ZM64,109.2V10.3c-.2-.2-.6-.1-.9-.1-4.8.2-9.6,0-14.4.2s-13.6.5-20.1,1.4-5,.7-7,1.5-1.6.6-1.6,1.2v54.9c5.6,9.8,13.9,17.9,22.6,24.9,6.3,5,13.1,9.8,20,14,.1,0,1.4.9,1.5.9Z"/>
</svg>