<?xml version="1.0" encoding="UTF-8"?>
<svg id="_Слой_1" data-name="Слой_1" xmlns="http://www.w3.org/2000/svg" version="1.1" xmlns:xlink="http://www.w3.org/1999/xlink" viewBox="0 0 128 128">
  <!-- Generator: Adobe Illustrator 29.3.1, SVG Export Plug-In . SVG Version: 2.1.0 Build 151)  -->
  <defs>
    <style>
      .st0 {
        fill: #fff;
      }
    </style>
  </defs>
  <image width="3743" height="3515" transform="translate(0 3.9) scale(0)" xlink:href="EM-1.png"/>
  <path class="st0" d="M72.4,86c-.1-2-.4-3.9-.8-5.8-.3-1.5-.8-3.1-1.3-4.5-1.4-4-3.6-7.7-6.3-10.9-.3-.3-.5-.6-.8-1-2.2-2.5-4.8-4.7-7.7-6.5-.7-.4-1.3-.8-2-1.2-5.1-2.8-10.9-4.3-17.2-4.3s-4.1.2-6.1.5c-4.1.7-7.9,2.1-11.4,4C8.2,62.2.9,73.3.2,86.1H.2c0,.6,0,1.2,0,1.8,0,20,16.2,36.1,36.1,36.1s14.6-2.3,20.4-6.3c1.7-1.2,3.4-2.5,4.9-4-.6-.7-1.2-1.4-1.7-2.1-2.8-3.7-5-7.9-6.2-12.6-.2-.6-.3-1.2-.4-1.7-1.3,2.4-3.1,4.5-5.3,6.1-3.2,2.4-7.2,3.9-11.6,3.9-10.7,0-19.3-8.6-19.3-19.3s0-1.2,0-1.9c.6-6.8,4.8-12.6,10.7-15.5,2.6-1.3,5.5-2,8.5-2s6.1.7,8.7,2c0,0,0,0,0,0,.7.3,1.4.7,2,1.2,2.9,1.9,5.2,4.6,6.8,7.8,1.2,2.5,1.8,5.2,1.9,8.1,0,0,0,.1,0,.2,0,3.3.4,6.5,1.3,9.6.1.4.2.9.4,1.3.5,1.6,1.1,3.1,1.8,4.5.2.5.5.9.7,1.4.2.3.3.6.5.9.1.3.3.5.5.8.2.2.3.5.4.7.2.4.5.7.7,1.1.1.1.2.3.3.5,0,0,0,0,0,0,.3.4.6.8.9,1.2.3.4.6.7.9,1.1,0,0,0,0,.1.1h0c.8-.9,1.5-1.9,2.2-2.9,2.1-3.1,3.7-6.6,4.8-10.2.9-3.1,1.4-6.4,1.4-9.8v-.7c0-.5,0-1,0-1.5Z"/>
  <path class="st0" d="M91.7,51.8c-3,0-6,.4-8.8,1.1-2.5.6-4.9,1.5-7.2,2.6-1.4.7-2.8,1.5-4.1,2.4h0c-1.5,1-2.8,2-4.1,3.2-.4.3-.7.7-1.1,1,.2.2.4.5.6.7,2.7,3.2,4.8,6.9,6.3,10.9.1.4.3.8.4,1.1,2.2-.6,4.3-1.4,6.4-2.4,1.2-1,2.6-1.7,4.1-2.4h0c6.4-4.2,11.3-10.5,13.9-17.8-2.1-.4-4.2-.6-6.4-.6ZM101.4,53.1c-2,6-5.5,11.3-10.1,15.5.1,0,.3,0,.4,0,10.7,0,19.3,8.7,19.3,19.3s-8.6,19.3-19.3,19.3-14.6-4.7-17.6-11.3c-1.1-2.4-1.7-5-1.7-7.8,0,0,0-.2,0-.2,0-.1,0-.3,0-.4,0-2.5-.3-4.9-.8-7.3-.3-1.5-.8-3.1-1.3-4.5-1.4-4-3.6-7.7-6.3-10.9-2.7,3.2-4.8,6.9-6.3,10.9-.1.3-.2.6-.3,1-.2.5-.3,1-.5,1.5-.9,3.1-1.3,6.3-1.4,9.6v.2c0,3.3.4,6.5,1.3,9.6.1.4.2.9.4,1.3.5,1.6,1.1,3.1,1.8,4.5.2.5.5.9.7,1.4.2.3.3.6.5.9.1.3.3.5.5.8.2.2.3.5.4.7.2.4.5.7.7,1.1.1.1.2.3.3.5,0,0,0,0,0,0,.3.4.6.8.9,1.2.3.4.6.7.9,1.1,0,0,0,0,.1.1.2.2.4.5.6.7,6.6,7.5,16.3,12.2,27.1,12.2,20,0,36.1-16.2,36.1-36.1s-11.2-30.5-26.4-34.8Z"/>
  <path class="st0" d="M83.7,9.7s0,0,0,0c-5.6-3.6-12.3-5.7-19.5-5.7-20,0-36.1,16.2-36.1,36.1s.4,6,1.1,8.8c.3,0,.7-.1,1-.2,2-.3,4-.5,6.1-.5,3.9,0,7.7.6,11.3,1.8-1.7-2.9-2.7-6.2-2.7-9.8,0-10.7,8.7-19.3,19.3-19.3s7.9,1.3,11.1,3.5c5,3.5,8.2,9.3,8.2,15.8s-3,11.9-7.7,15.4c-1.2,1-2.6,1.7-4.1,2.4h0c-2.3,1-4.9,1.5-7.5,1.5s-.3,0-.4,0c.9.8,1.7,1.6,2.5,2.5,0,0,.1.2.2.2.2.2.4.5.6.7,2.7,3.2,4.8,6.9,6.3,10.9.1.4.3.8.4,1.1,2.2-.6,4.3-1.4,6.4-2.4,1.4-.7,2.8-1.5,4.1-2.4h0c6.4-4.2,11.3-10.5,13.9-17.8,1.4-3.8,2.2-8,2.2-12.3,0-12.8-6.6-24-16.6-30.4ZM63.2,63.8c-2.2-2.5-4.8-4.7-7.7-6.5-.7-.4-1.4-.8-2-1.2-5.1-2.8-10.9-4.3-17.2-4.3s-4.1.2-6.1.5c1.7,4.8,4.4,9.1,7.9,12.7.6.6,1.2,1.2,1.8,1.7,1.6,1.5,3.3,2.8,5.2,3.9,0,0,0,0,0,0,.7.4,1.3.8,2,1.2.2.1.5.2.7.4,0,0,0,0,0,0,1.7.8,3.4,1.6,5.2,2.2.8.3,1.6.5,2.4.7.8.2,1.6.4,2.5.5,2.1.4,4.2.6,6.4.6s4.1-.2,6.1-.5c-1.4-4-3.6-7.7-6.3-10.9-.3-.3-.5-.6-.8-1Z"/>
</svg>