<?xml version="1.0" encoding="UTF-8"?>
<svg id="_Слой_1" xmlns="http://www.w3.org/2000/svg" version="1.1" viewBox="0 0 128 128">
  <!-- Generator: Adobe Illustrator 29.3.1, SVG Export Plug-In . SVG Version: 2.1.0 Build 151)  -->
  <defs>
    <style>
      .st0, .st1 {
        fill: #fff;
      }

      .st1 {
        opacity: .5;
      }
    </style>
  </defs>
  <path class="st0" d="M57.4,0c-1.5.2-2.9.9-3.9,1.9C34.9,18.4,20.2,38.8,10.4,61.6c-13.9,41.5,12.4,63.5,41.2,66.1l-.8-2.5,3.3-4.4c1.4-1.8,2-2.7,3.1-4.2-19.1.7-35.6-13.4-37.8-32.4-1.3-19.4,20.4-55.6,36-67.7.6-.3,1.3-.6,2-.7.7.1,1.4.3,2,.7,11.3,8.7,25.7,30,32.4,48.5.5-1.2,1.4-2.2,2.4-2.9,2.4-1.6,4.9-2.1,6.6-2.1h2.8c-9.8-22.2-24.2-42-42.3-58.1C60.2.8,58.8.1,57.4,0M34.9,63.3c-1.9,0-3.8.5-5.4,1.4-2,1.2-3.5,3-4.1,5.2-9.1,30,13.9,43.7,35.3,41.9l3.4-4.6h-.2c-2.7-1.2-5.2-2.8-7.3-4.8l-.6-.5-.2-.2c-2.1-2.3-3.7-4.9-4.8-7.8h0c-1.2-3.2-1.7-6.5-1.7-9.9s.5-6.4,1.7-9.5v-.3h0c.6-1.7,1.5-3.3,2.5-4.9-6.9-2.9-13-6-18.5-5.9"/>
  <path class="st0" d="M100.8,70.6h14.1c.6.2.8.5.7,1-22.9,31.9-36.5,50.5-40.7,55.7-.2.5-.7.7-1.5.7h-9c-1.1,0-1.7-.3-1.9-.9,23.7-31.7,36.3-49.1,38-52.3.2-.4.4-.8.4-1.3s-.3-1.3-1-2.3c0-.4.4-.7,1-.7M59.6,84c0-2.3.3-4.3,1-6.1.7-1.8,1.6-3.3,2.8-4.5,1.2-1.3,2.6-2.2,4.3-2.8,1.6-.7,3.4-1,5.4-1s3.8.3,5.5,1c1.7.6,3.1,1.6,4.2,2.9,1.2,1.2,2.2,2.7,2.8,4.5.7,1.7,1,3.8,1,6s-.3,4.3-1,6.1c-.7,1.7-1.6,3.2-2.9,4.5s-2.6,2.2-4.2,2.8c-1.7.6-3.5,1-5.5,1s-3.7-.3-5.4-1c-1.7-.7-3.1-1.6-4.3-2.9s-2.1-2.8-2.8-4.5c-.7-1.8-1-3.8-1-6.1h0ZM78.5,84c0-1.6,0-2.9-.4-4.2-.2-1.2-.6-2.2-1.1-3.1-.4-.9-1-1.5-1.7-2s-1.4-.7-2.2-.7-1.6.2-2.3.7c-.6.4-1.2,1.1-1.7,2-.4.8-.8,1.8-1.1,3.1-.2,1.2-.4,2.6-.4,4.2s0,2.9.4,4.2c.3,1.2.7,2.3,1.1,3.1.5.9,1,1.5,1.7,2,.7.4,1.4.7,2.3.7s1.5-.2,2.2-.7c.7-.4,1.2-1.1,1.7-2s.8-1.9,1.1-3.1c.3-1.2.4-2.6.4-4.2M94.3,111.5c0-2.3.3-4.3,1-6.1.7-1.8,1.6-3.3,2.8-4.5,1.2-1.3,2.6-2.2,4.3-2.9,1.7-.7,3.5-1,5.4-1s3.8.3,5.5,1c1.7.6,3.1,1.6,4.2,2.9,1.2,1.2,2.2,2.7,2.9,4.5.7,1.7,1,3.8,1,6s-.3,4.3-1,6-1.6,3.2-2.9,4.5-2.6,2.2-4.2,2.9c-1.7.6-3.5,1-5.5,1s-3.7-.3-5.4-1c-1.7-.7-3.1-1.6-4.3-2.9-1.2-1.3-2.1-2.8-2.8-4.5-.7-1.8-1-3.8-1-6.1h0v.2ZM113.2,111.3c0-1.6,0-2.9-.4-4.2-.2-1.2-.6-2.2-1.1-3.1-.4-.9-1-1.5-1.7-2-.6-.5-1.4-.7-2.2-.7s-1.5.2-2.2.7c-.7.4-1.3,1.1-1.7,2-.4.8-.8,1.8-1.1,3.1-.2,1.2-.4,2.6-.4,4.2s0,2.9.4,4.1.7,2.3,1.1,3.1c.5.9,1.1,1.5,1.7,2,.7.4,1.4.7,2.2.7s1.6-.2,2.2-.7c.7-.4,1.2-1.1,1.7-2s.8-1.9,1.1-3.1c.3-1.2.4-2.6.4-4.2"/>
  <path class="st1" d="M73.3,67c2,0,3.8.3,5.5,1,1.6.6,3,1.5,4.1,2.7,2.3-.7,4.5-1.6,6.6-2.7-.9-3-2.1-7-4.1-9.3-2.6-2.9-4.3-1-6.6.9-2.8,2.4-5.6,5-8.2,7.7.9-.2,1.8-.2,2.8-.2Z"/>
</svg>