<svg aria-hidden="true" data-icon="hp_primary" width="14" height="14" xmlns="http://www.w3.org/2000/svg" viewBox="0 0 15 15" class="h-4 w-4 fill-current text-white"><path fill="currentColor" d="M3.5 7.654a.978.978 0 01.449-.571c1.51-.85 3.586 2.117 6.544.548 1.927 6.083-8.893 6.247-6.992.023zM7 14c-3.373 0-6.75-2.421-5.134-7.26A18.543 18.543 0 016.57.213.748.748 0 017 0a.751.751 0 01.432.212 18.543 18.543 0 014.705 6.528C13.749 11.579 10.376 14 7 14zm.22-12.19A.639.639 0 007 1.735a.649.649 0 00-.22.075C5.07 3.134 2.7 7.092 2.839 9.21A4.019 4.019 0 007 12.753a4.019 4.019 0 004.162-3.538c.139-2.123-2.231-6.081-3.942-7.405z"></path><path fill="currentColor" d="M7.98 8.03a12.566 12.566 0 011.573-1.509c.569-.413.94 1.11.94 1.11a3.731 3.731 0 01-2.513.399z" color="gray" fill-opacity=".497"></path></svg>