<?xml version="1.0" encoding="UTF-8"?>
<svg id="_Слой_1" data-name="Слой_1" xmlns="http://www.w3.org/2000/svg" version="1.1" viewBox="0 0 128 128">
  <!-- Generator: Adobe Illustrator 29.3.1, SVG Export Plug-In . SVG Version: 2.1.0 Build 151)  -->
  <defs>
    <style>
      .st0, .st1 {
        fill: #fff;
      }

      .st1 {
        opacity: .5;
      }
    </style>
  </defs>
  <path class="st0" d="M112.4,66.6c-1-3.7-2.2-6.7-3.8-10.2-8.9-18.9-21.2-35.9-36.2-50.4-1.4-1.4-2.9-2.8-4.4-4.1-1.1-.9-2.4-1.8-3.8-2,0,0-.2,0-.3,0-2.2.3-4.1,2.2-5.7,3.7-16.7,15.3-31.1,35.1-40.2,55.9-4.3,9.9-6,23.5-3.6,34.1,10.2,45.3,87.2,46,98.9,1.5,2.5-9.3,1.6-19.3-.8-28.5ZM88.8,108.3c-8.3,6.8-17.2,8.7-27.8,8.3-16.7-.6-31.1-12.8-34.5-29.1-1.7-8,.9-16.9,3.8-24.4,3.6-9.4,8.7-18.6,14.4-26.9,4.1-6,9-12.4,14.4-17.3,1.2-1.1,3.1-2.9,4.7-3.1,1.9-.2,4.7,2.6,6,3.9,7.6,7.2,14.4,17,19.6,26.1,5.7,10,12.3,24.1,12.7,35.8.3,9.7-5.9,20.6-13.3,26.6Z"/>
  <path class="st0" d="M72.7,73.4h.6c4.6.8,9.3.7,13.9-.4s5.4-1.8,8.1-3.1.4-.1.6-.1c1.8,6,2.7,11.8,1.6,18.1-4.4,24.8-39.5,30.7-57.3,16.7-10.4-8.2-12.1-20.6-8.8-33s1.6-5.1,4.3-6.8c4.9-3.1,10.9-1.1,15.8.8,7.1,2.8,13.4,6.2,21.1,7.6Z"/>
  <path class="st1" d="M95.9,69.8c-2.9,1.5-5.8,2.7-9,3.4-4.8,1.1-9.4,1.1-14.2.2.2,0,.2,0,.3,0,.4-.3,1.1-1.3,1.5-1.7,3.3-3.6,6.9-7.1,10.6-10.2s4-3.8,6.6-.9c2.1,2.3,3.3,6.4,4.1,9.3Z"/>
</svg>