<?xml version="1.0" encoding="UTF-8"?>
<svg id="_Слой_1" data-name="Слой_1" xmlns="http://www.w3.org/2000/svg" version="1.1" viewBox="0 0 128 128">
  <!-- Generator: Adobe Illustrator 29.3.1, SVG Export Plug-In . SVG Version: 2.1.0 Build 151)  -->
  <defs>
    <style>
      .st0 {
        fill: #fff;
      }
    </style>
  </defs>
  <path class="st0" d="M126.6,1c.9.9.5,2.5.5,3.7,0,5,.2,9.9.3,14.8s.2,4.8-3.3,5-6.1-.3-9.1-.2l-17.5,17.5,15,15c1.6,2-.9,3.6-2.1,4.9s-2.6,2.9-4.2,4.1c-2.4,1.8-3.2.9-5-1s-3.1-3.5-4.9-5.2-1-.9-1-1,0,0-.1,0L30.1,123.9c-.7.6-1.4.9-2.3,1-2,.3-4.2.6-6.3.8-7,.8-14,1.3-21.1,1.4.1-1.1,0-2.3,0-3.4.2-5.6.6-11.3,1.2-16.9s.5-5,1-7.2.5-1.4.9-2L68.9,32.4v-.2s-7.4-7.4-7.4-7.4c-.8-.8-1-2-.3-2.9l7-7c.7-.6,1.9-.6,2.6,0l14.9,15h.1c0,0,17.5-17.4,17.5-17.4,0-1.4,0-2.8,0-4.3s-.3-4.3-.1-6.1.9-1.7,1.8-1.7h20.4c.4,0,.9.3,1.2.6Z"/>
  <polygon class="st0" points="127.6 125.5 104.9 110.4 82.3 125.5 82.3 109.4 104.9 94.3 127.6 109.4 127.6 125.5"/>
  <polygon class="st0" points="127.6 103.3 105 88.3 82.3 103.3 82.3 87.2 104.9 72.2 127.6 87.3 127.6 103.3"/>
</svg>