<?xml version="1.0" encoding="UTF-8"?>
<svg id="svg" xmlns="http://www.w3.org/2000/svg" version="1.1" viewBox="0 0 128 128">
  <!-- Generator: Adobe Illustrator 29.3.1, SVG Export Plug-In . SVG Version: 2.1.0 Build 151)  -->
  <defs>
    <style>
      .st0, .st1, .st2 {
        stroke-miterlimit: 10;
      }

      .st0, .st2 {
        stroke: #010101;
        stroke-width: .4px;
      }

      .st0, .st3 {
        fill: #fff;
      }

      .st1 {
        opacity: .2;
        stroke: #1e1e1c;
        stroke-width: .5px;
      }

      .st1, .st2 {
        fill: none;
      }

      .st1, .st2, .st3 {
        isolation: isolate;
      }

      .st2 {
        opacity: .4;
      }

      .st3 {
        opacity: .5;
      }
    </style>
  </defs>
  <g id="_Слой_5">
    <rect class="st3" x="70.9" y="36.9" width="20.1" height="20.2" rx="1.6" ry="1.6"/>
    <path class="st3" d="M64.5,23.7v31.1c0,1.1-.9,2-2,2h-.8c-1.2,0-2.2-1.1-2.2-2.2v-1.5c0-.9-.6-1.6-1.6-1.6h-14.1c-1.1,0-1.8-.9-1.8-1.9v-13.5c0-1.2-.6-2.2-1.6-3-3-2-6.7-3.2-10.6-3.2-10.8,0-19.4,8.7-19.4,19.5s0,2,0,3.2v2.4c0,2,1.2,3.7,3,4.5,1.3.6,3.2.6,4.8,0,1.2-.6,2-1.8,2.2-3.1.8-3.3-1.8-6.4-4.9-6.4s-.3,0-.6,0c.6-.4,1.2-.6,1.8-.6,4.4,0,7.9,3.6,7.9,8s-2.1,6.4-5.4,7.5c-.4,0-.6.3-1.2.4-1.5.3-3,0-5.1-.3-3.3-.6-4.6-3.3-4.8-3.4-2.4-5.2-3-8.8-3-14.7C5.1,25.7,21,8.4,41.6,6.3h3.9c0,0,.4,0,.4,0h2.2c.9,0,1.6.8,1.6,1.8v20.7c0,.8.6,1.3,1.3,1.3h7.3c.6,0,1.1-.3,1.3-.6l4.4-5.7h.3v.3c0,0,.3,0,.3,0Z"/>
    <path class="st3" d="M67.9,68.8c-.4,0-25.6,0-25.6.6-.3,2-1.2,14.5-1.3,16.4,0,.4,0,.6.6.6,2,0,11.3-.4,15.4-.6.9,0,2,.3,2.1-.6,0-1.3.6-7,.6-10.4,0-1.5,0-2.4.4-2.7.9-.4,4.8-.3,6,0,1.5.4,1.1,3.1,1.3,4,.6,4.5,1.3,9.7,2,14.5,0,1.6.8,3,0,3.7-10.2,1.6-29.9,3.4-40.5,4.8-.3,0-.6,0-.6-.6.9-8.2,2.2-17.8,3.3-26.3.6-4.9,1.2-9.7,1.5-11.1,0-.9.3-2.2.9-2.7,7.9.4,21.8,2.1,30.5,2.8,2.7.4,27.7.6,34.2,1.1.6,0,.9.6.6,1.2-1.1,1.8-3,4.3-3.2,5.8v6.9c0,.3,0,.6.3.6,3.2,0,17-.3,20-.3s3.4-1.9,4.4-2c.3,0,.4.3.4.6,0,2-.3,6-.6,8.4v.3c-2,17-11.8,35-28.4,37.9-1.6.3-2.1.3-3.9.6-8.2.9-17.5,1.5-24.2-3.6-5.7-4.9-1.2-16.6,6.4-16.4,4.4,0,7.6,4.6,6.4,8.8-.3.8-.6,1.2-1.1.4-4.6-8.7-13.2,1.1-5.8,5.1,1.1.4,2.2.6,3.4.6,3,0,6,.3,9-.4,13.9-2.4,18.8-20.8,7.8-29.9-1.1-1.1-2.5-.9-4.5-.9s-7.2,0-9.7,0c-.6,0-1.1-.6-1.1-1.1v-9.6c0-5.7,0-6.7-7.3-6.7"/>
    <path class="st1" d="M21.9,25.5c4.9-4.6,11.8-7.8,19.6-8.2l.3,17.6"/>
    <path class="st1" d="M100.8,106.6c5.4-4.9,9-11.8,9.3-19.4l-20.1-.3"/>
  </g>
  <g id="svg-2">
    <path class="st0" d="M122.9,7.2l-10.3,26.4c-.3.8-1.1,1.2-1.8.9-2.7-.8-5.2-2-7.5-3.6-.6-.4-1.5-.4-2.1,0l-61.5,61.4c-.3.3-.6.8-.4,1.3,0,1.6,0,5.6-3,11.9-.4.9-1.1,1.6-1.6,2.4-1.8,2.2-5.6,6.3-5.7,6.3-1.2,0-6.7-1.8-7.8-2.4-.6-.3-.4-.4-.9.3-.6.8-2.1,2.4-4.8,2.4s-1.8-.8-1.6-1.8c0-1.1.4-2.5,1.8-3.9.6-.4.6-.6,0-1.5-.6-1.2-1.3-4.4-1.6-6.4,0-1.1,0-2.1.8-3s1.5-1.8,2-2.1c0,0,6.6-7.6,17.5-6.9.4,0,.9,0,1.2-.4l61.2-61.7c.6-.6.6-1.5,0-2-1.6-2.2-2.8-4.9-3.4-7.8-.3-.8.3-1.6.9-1.9l26.2-10.1c1.3-.6,2.5.8,2.1,2h0Z"/>
    <line class="st2" x1="38.9" y1="93.2" x2="20.7" y2="111.7"/>
    <line class="st2" x1="34.6" y1="89.4" x2="16" y2="108.2"/>
  </g>
</svg>