<?xml version="1.0" encoding="UTF-8"?>
<svg id="svg" xmlns="http://www.w3.org/2000/svg" viewBox="0 0 128 128">
  <defs>
    <style>
      .cls-1, .cls-2 {
        fill: #fff;
      }

      .cls-2 {
        stroke-width: .4px;
      }

      .cls-2, .cls-3, .cls-4 {
        stroke: #000;
        stroke-miterlimit: 10;
      }

      .cls-3 {
        stroke-width: .5px;
      }

      .cls-3, .cls-4 {
        fill: none;
        opacity: .2;
      }

      .cls-5 {
        opacity: .5;
      }
    </style>
  </defs>
  <g id="back" class="cls-5">
    <path class="cls-1" d="M95.91,60.51c-.15-16.33-12.45-29.76-28.3-31.68l-4.6-25.77-7.4,26.56c-6.07,1.56-11.44,4.85-15.57,9.32l-14.98-1.95,9.03,11.1c-1.68,3.91-2.61,8.21-2.61,12.72,0,1.09.05,2.17.16,3.23l-22.78,10.23,27.21,3.12c4.05,6.73,10.49,11.86,18.15,14.21l9.32,31.7,7.76-31.18c9.4-2.28,17.19-8.68,21.34-17.18l26.35-7.94-23.08-6.49ZM46.05,46.29l4.2,1c3.48-2.94,7.99-4.71,12.9-4.71,11.08,0,20.05,8.97,20.05,20.04s-8.97,20.05-20.05,20.05-20.04-8.97-20.04-20.05c0-3.77,1.04-7.29,2.84-10.29l-2.61-2.7-5.02-5.19,7.73,1.85Z"/>
    <path class="cls-1" d="M73.94,64.23c0,5.66-4.59,10.25-10.25,10.25s-10.24-4.59-10.24-10.25,4.59-10.24,10.24-10.24,10.25,4.58,10.25,10.24Z"/>
    <path class="cls-3" d="M63.69,74.48c-5.65,0-10.24-4.59-10.24-10.25s4.59-10.24,10.24-10.24,10.25,4.58,10.25,10.24-4.59,10.25-10.25,10.25Z"/>
    <path class="cls-4" d="M87.18,62.99c0,13.23-10.72,23.96-23.95,23.96s-23.96-10.73-23.96-23.96c0-4.94,1.5-9.54,4.07-13.36l2.61,2.7c-1.8,3-2.84,6.52-2.84,10.29,0,11.08,8.97,20.05,20.04,20.05s20.05-8.97,20.05-20.05-8.97-20.04-20.05-20.04c-4.91,0-9.42,1.77-12.9,4.71l-4.2-1c4.35-4.47,10.44-7.25,17.18-7.25,13.23,0,23.95,10.72,23.95,23.95Z"/>
  </g>
  <g id="main">
    <polygon id="m" class="cls-2" points="103.09 63.32 82.15 59.23 28.49 100.06 68.67 43.89 64.85 25.72 82.47 32.55 102.64 25.34 94.98 45.26 103.09 63.32"/>
    <polygon id="l" class="cls-2" points="41.44 57.47 35.68 56.35 20.93 67.57 31.98 52.13 30.93 47.14 35.77 49.02 41.32 47.03 39.21 52.51 41.44 57.47"/>
    <polygon id="r" class="cls-2" points="81.36 97.39 75.6 96.27 60.85 107.49 71.89 92.05 70.84 87.05 75.69 88.93 81.23 86.95 79.13 92.43 81.36 97.39"/>
  </g>
</svg>