<?xml version="1.0" encoding="UTF-8"?>
<svg id="svg" xmlns="http://www.w3.org/2000/svg" version="1.1" viewBox="0 0 128 128">
  <!-- Generator: Adobe Illustrator 29.3.1, SVG Export Plug-In . SVG Version: 2.1.0 Build 151)  -->
  <defs>
    <style>
      .st0 {
        stroke-width: .4px;
      }

      .st0, .st1 {
        fill: #fff;
      }

      .st0, .st2, .st3 {
        stroke: #000;
        stroke-miterlimit: 10;
      }

      .st2 {
        stroke-width: .5px;
      }

      .st2, .st3 {
        fill: none;
        isolation: isolate;
        opacity: .2;
      }

      .st4 {
        opacity: .5;
      }
    </style>
  </defs>
  <g id="back" class="st4">
    <path class="st1" d="M97.9,61.1c-.2-17.4-13.3-31.7-30.1-33.7L63,0l-7.9,28.2c-6.5,1.6-12.1,5.2-16.6,9.9l-15.9-2,9.6,11.8c-1.8,4.1-2.7,8.7-2.7,13.6s0,2.3.2,3.4l-24.2,10.9,28.9,3.3c4.4,7.2,11.1,12.6,19.3,15.1l9.9,33.7,8.3-33.2c10-2.4,18.3-9.2,22.7-18.3l28-8.4-24.6-6.9h-.2,0ZM44.8,45.9l4.5,1.1c3.7-3.1,8.5-5,13.8-5,11.7,0,21.4,9.5,21.4,21.4s-9.5,21.4-21.4,21.4-21.4-9.5-21.4-21.4,1.1-7.8,3-10.9l-2.7-2.8-5.4-5.6,8.2,1.9h0Z"/>
    <path class="st1" d="M74.5,65.1c0,6-4.9,10.9-10.9,10.9s-10.9-4.9-10.9-10.9,4.9-10.9,10.9-10.9,10.9,4.9,10.9,10.9Z"/>
    <path class="st2" d="M63.6,76c-6,0-10.9-4.9-10.9-10.9s4.9-10.9,10.9-10.9,10.9,4.9,10.9,10.9-4.9,10.9-10.9,10.9Z"/>
    <path class="st3" d="M88.6,63.7c0,14.1-11.4,25.5-25.5,25.5s-25.5-11.4-25.5-25.5,1.6-10.1,4.4-14.2l2.7,2.8c-1.9,3.2-3,7-3,10.9,0,11.7,9.5,21.4,21.4,21.4s21.4-9.5,21.4-21.4-9.5-21.4-21.4-21.4-10,1.9-13.8,5l-4.5-1.1c4.7-4.8,11.1-7.7,18.3-7.7,14.1,0,25.5,11.4,25.5,25.5h0v.2Z"/>
  </g>
  <g id="main">
    <polygon id="m" class="st0" points="105.5 64.1 83.2 59.7 26.2 103.1 69 43.4 64.9 24.1 83.5 31.4 105 23.7 97 44.8 105.5 64.1"/>
    <polygon id="l" class="st0" points="40 57.9 33.8 56.7 18.1 68.6 29.9 52.2 28.8 46.8 33.8 48.9 39.8 46.7 37.6 52.6 40 57.9"/>
    <polygon id="r" class="st0" points="82.4 100.3 76.2 99.2 60.6 111 72.4 94.6 71.2 89.3 76.4 91.3 82.2 89.2 80 95 82.4 100.3"/>
  </g>
</svg>