<?xml version="1.0" encoding="UTF-8"?>
<svg id="svg" xmlns="http://www.w3.org/2000/svg" version="1.1" viewBox="0 0 128 128">
  <!-- Generator: Adobe Illustrator 29.3.1, SVG Export Plug-In . SVG Version: 2.1.0 Build 151)  -->
  <defs>
    <style>
      .st0 {
        stroke: #000;
        stroke-width: .4px;
      }

      .st0, .st1 {
        fill: #fff;
      }

      .st0, .st2, .st3 {
        stroke-miterlimit: 10;
      }

      .st4 {
        opacity: .4;
      }

      .st2 {
        isolation: isolate;
      }

      .st2, .st5, .st3 {
        fill: none;
      }

      .st2, .st3 {
        stroke: #1d1d1b;
      }

      .st2, .st6 {
        opacity: .5;
      }

      .st3 {
        stroke-width: .5px;
      }
    </style>
  </defs>
  <g id="_Слой_5" class="st6">
    <path class="st1" d="M84,89l-.2-.6c8.5-5.1,14.5-13.8,16.1-24h16.4c-.7,6.5-2.6,12.7-5.5,18.2l12.1,19-23.7-4.3c-2.1,1.8-4.2,3.4-6.6,4.8l-3.8-5.8-4.8-7.4h0Z"/>
    <path class="st1" d="M116.4,55.3h-16.3c-1.9-17-16.3-30.2-33.8-30.2s-34.1,15.3-34.1,34.1,15.3,34.1,34.1,34.1,6.3-.4,9.2-1.3l2.6,8.5,2.2,7c-1.3.4-2.6.7-3.8,1h0l-10.1,19.5-9.2-19.3c-18-3.3-32.6-16.2-38.4-33.1l-8-1.4,6.1-5.8c-.6-3-.8-6-.8-9.2,0-9.1,2.4-17.6,6.6-24.9L5,13.1l26.7,9.5c7.7-7.3,17.8-12.1,28.9-13.3h0L66.1,0l5.2,9.2h0c24.1,2.5,43.1,21.9,45,46.1h0Z"/>
    <path class="st2" d="M26.5,36.9c-3.6,6.3-5.6,13.5-5.6,21.1,0,24.3,20.4,44,45.6,44s7.9-.5,11.5-1.4"/>
    <path class="st2" d="M35.7,25.6c8.1-7.2,19-11.6,30.9-11.6,24.3,0,44.1,18.3,45.5,41.3"/>
    <path class="st2" d="M88.9,96.3c12-6.5,20.7-18.2,22.8-31.9"/>
    <line class="st5" x1="92.5" y1="102.1" x2="88.9" y2="96.3"/>
    <polyline class="st5" points="80.1 107.6 78 100.6 75.5 92"/>
  </g>
  <g id="_Слой_4">
    <path class="st0" d="M39,89.3l-8.1,7.9-3.5,3.4-6.1,5.9s-.1.2-.1.3v6c0,.2-.1.3-.3.3l-10.7,2.4c-.3,0-.5-.2-.4-.4l2.4-10.8c0-.2.2-.3.3-.3h5.1s.2,0,.2,0l6.8-6.6,3.1-3.1,8.3-8c0,0,.4,0,.5,0l2.4,2.5c0,0,0,.4,0,.5h0Z"/>
    <path class="st0" d="M120.6,4.3c-.3,8.3-2.8,16.2-6.9,22.8,0,.1,0,.2-.2.3l-9.4,10.8h0l-25.8,29.7h0l-22.2,25.5c0,.2-.4.2-.5,0l-5.8-6.1-16.7-17.4c0,0,0-.4,0-.5l25.3-23.2,25.5-23.4s12.2-11.2,13.3-12.2c0,0,0,0,.2-.1,6.8-4.1,14.7-6.5,23.1-6.7.2,0,.4.2.4.4h-.3Z"/>
    <path class="st0" d="M63.7,99.1l-1.4,1.4-6.1,6.1-1.4,1.4c-.2.2-.5,0-.6,0l-1.8-5.2h0c0,0-29.2-30.5-29.2-30.5h0l-5.1-1.9c-.2,0-.3-.4-.1-.6l1.4-1.4,6.1-6,1.4-1.4c.2-.2.5,0,.6,0l1.9,5.3h0c0,0,20.3,21.2,20.3,21.2l5.8,6.1.3.3h0l2.7,2.8h0l5.1,2c.2,0,.3.4,0,.6h0v-.2Z"/>
    <g class="st4">
      <path class="st3" d="M94,37.4l7.2-7.5c2.7-3.1,5.5-6.3,5.5-10.7s0-.2,0-.4h-.7c-3.8,0-6.2,1.6-9.6,4.2l-8.6,8"/>
      <line class="st3" x1="94" y1="37.4" x2="47.9" y2="85.5"/>
      <line class="st3" x1="87.8" y1="31" x2="39.2" y2="76.4"/>
    </g>
  </g>
</svg>