<?xml version="1.0" encoding="UTF-8"?>
<svg id="svg" xmlns="http://www.w3.org/2000/svg" viewBox="0 0 128 128">
  <defs>
    <style>
      .cls-1, .cls-2 {
        fill: #fff;
      }

      .cls-3 {
        opacity: .4;
      }

      .cls-2 {
        stroke: #000;
        stroke-width: .4px;
      }

      .cls-2, .cls-4, .cls-5 {
        stroke-miterlimit: 10;
      }

      .cls-6, .cls-4, .cls-5 {
        fill: none;
      }

      .cls-4, .cls-5 {
        stroke: #1d1d1b;
      }

      .cls-4, .cls-7 {
        opacity: .5;
      }

      .cls-5 {
        stroke-width: .5px;
      }
    </style>
  </defs>
  <g id="_Слой_5" data-name="Слой 5" class="cls-7">
    <path class="cls-1" d="M77.9,85.31l-.19-.44c6.61-3.98,11.32-10.77,12.53-18.7h12.78c-.52,5.08-2.01,9.88-4.28,14.2l9.46,14.77-18.51-3.37c-1.6,1.39-3.31,2.65-5.12,3.77l-2.93-4.49-3.74-5.74Z"/>
    <path class="cls-1" d="M103.11,59.08h-12.74c-1.51-13.23-12.74-23.5-26.37-23.5-14.66,0-26.55,11.89-26.55,26.56s11.89,26.55,26.55,26.55c2.5,0,4.91-.34,7.2-1l2.03,6.64,1.68,5.48c-.98.29-1.99.54-3,.75h0l-7.9,15.16-7.17-15.02c-14-2.59-25.38-12.6-29.93-25.8l-6.2-1.09,4.73-4.52c-.43-2.32-.65-4.71-.65-7.15,0-7.07,1.87-13.7,5.14-19.42l-13.59-16.54,20.83,7.37c6.03-5.67,13.86-9.45,22.54-10.4h.01l4.29-7.19,4.05,7.17h.01c18.76,1.93,33.59,17.06,35.05,35.95Z"/>
    <path class="cls-4" d="M33.04,44.7c-2.77,4.89-4.35,10.5-4.35,16.46,0,18.93,15.91,34.29,35.54,34.29,3.11,0,6.13-.38,9-1.12"/>
    <path class="cls-4" d="M40.18,35.92c6.33-5.62,14.78-9.05,24.05-9.05,18.9,0,34.35,14.24,35.46,32.21"/>
    <path class="cls-4" d="M81.64,91.05c9.39-5.1,16.12-14.19,17.74-24.88"/>
    <line class="cls-6" x1="84.57" y1="95.54" x2="81.64" y2="91.05"/>
    <polyline class="cls-6" points="74.91 99.81 73.23 94.33 71.2 87.69"/>
  </g>
  <g id="_Слой_4" data-name="Слой 4">
    <path class="cls-2" d="M42.83,85.55l-6.31,6.14-2.7,2.63-4.73,4.6s-.08.12-.08.2v4.7c0,.13-.09.24-.21.27l-8.35,1.89c-.2.05-.37-.12-.33-.32l1.85-8.39c.03-.12.14-.21.27-.21h3.96c.07,0,.14-.03.19-.08l5.28-5.13,2.45-2.38,6.43-6.26c.11-.1.29-.1.39.01l1.9,1.94c.1.11.1.29-.01.39Z"/>
    <path class="cls-2" d="M106.45,19.29c-.23,6.5-2.17,12.59-5.4,17.79-.05.09-.11.17-.18.25l-7.3,8.38s-.03.04-.05.05l-20.13,23.12h0s-17.3,19.89-17.3,19.89c-.11.12-.3.12-.41.01l-4.55-4.73-13.01-13.55c-.1-.11-.1-.29.02-.39l19.7-18.09,19.86-18.24s9.5-8.72,10.33-9.47c.04-.04.08-.07.13-.1,5.27-3.19,11.42-5.08,18.01-5.22.16,0,.3.14.29.3Z"/>
    <path class="cls-2" d="M62.11,93.17l-1.13,1.09-4.76,4.72-1.13,1.1c-.15.14-.39.08-.45-.1l-1.42-4.08s-.03-.07-.06-.1l-22.77-23.66h0s-3.96-1.5-3.96-1.5c-.18-.07-.23-.31-.09-.45l1.13-1.09,4.73-4.68,1.13-1.1c.15-.14.39-.09.45.1l1.46,4.1s.03.07.06.1l15.84,16.44,4.55,4.73.2.21h.01l2.13,2.2h0s3.98,1.52,3.98,1.52c.18.07.23.31.09.45Z"/>
    <g class="cls-3">
      <path class="cls-5" d="M85.67,45.09l5.62-5.85c2.14-2.39,4.32-4.92,4.32-8.37,0-.09,0-.19-.01-.28-.19,0-.37-.01-.56-.01-2.97,0-4.86,1.22-7.51,3.27l-6.7,6.25"/>
      <line class="cls-5" x1="85.67" y1="45.09" x2="49.72" y2="82.58"/>
      <line class="cls-5" x1="80.83" y1="40.1" x2="42.91" y2="75.52"/>
    </g>
  </g>
</svg>