<?xml version="1.0" encoding="UTF-8"?>
<svg id="svg" xmlns="http://www.w3.org/2000/svg" version="1.1" viewBox="0 0 128 128">
  <!-- Generator: Adobe Illustrator 29.3.1, SVG Export Plug-In . SVG Version: 2.1.0 Build 151)  -->
  <defs>
    <style>
      .st0 {
        stroke-width: .8px;
      }

      .st0, .st1, .st2 {
        stroke-miterlimit: 10;
      }

      .st0, .st1, .st2, .st3 {
        stroke: #000;
      }

      .st0, .st2, .st3 {
        fill: none;
      }

      .st1 {
        stroke-width: .4px;
      }

      .st1, .st4 {
        fill: #fff;
      }

      .st2, .st3 {
        isolation: isolate;
      }

      .st2, .st3, .st5 {
        opacity: .5;
      }

      .st3 {
        stroke-miterlimit: 10;
        stroke-width: .7px;
      }
    </style>
  </defs>
  <g id="BG">
    <g class="st5">
      <path class="st4" d="M27.8,54.1l-8.6-8.6c-.2-.2-.6-.2-.9,0L.2,63.6c-.2.2-.2.6,0,.9l18.1,18.1c.2.2.6.2.9,0l8.6-8.6c.2-.2.5-.2.8,0,0,0,0,0,.1,0l25.4,25.4c.2.2.2.6,0,.9l-8.6,8.6c-.2.2-.2.6,0,.9l18,18c.2.2.6.2.9,0l18.1-18.1c.2-.2.2-.6,0-.9l-8.6-8.6c-.2-.2-.2-.6,0-.8,0,0,0,0,0,0l10.4-10.4,2.6-2.6,12.4-12.4c.2-.2.6-.2.9,0l8.6,8.6c.2.2.6.2.9,0l18.1-18.1c.2-.2.2-.6,0-.9l-18.1-18.1c-.2-.2-.6-.2-.9,0l-8.6,8.6c-.2.2-.5.2-.8.1,0,0,0,0-.1-.1l-25.4-25.4c-.2-.2-.2-.6,0-.9l8.6-8.6c.2-.2.2-.6,0-.9L64.5.2c-.2-.2-.6-.2-.9,0l-18.1,18.1c-.2.2-.2.6,0,.9l8.6,8.6c.2.2.2.6,0,.8,0,0,0,0,0,0l-25.4,25.4c-.2.2-.6.2-.9,0h0ZM63.6,38.2c.2-.2.6-.2.9,0l1.2,1.2c.1.1.4.2.6.1.5-.1.9-.2,1.4-.2,3.4,0,6.2,2.8,6.2,6.2s0,.8-.1,1.2l-.3.3,7.9,7.9.3-.3c.4,0,.8-.1,1.2-.1,3.4,0,6.2,2.8,6.2,6.2s0,1-.2,1.4c0,.2,0,.4.1.6l.8.8s0,0,0,.1c.1.2.1.6,0,.8l-25.4,25.4s0,0,0,0c-.2.2-.6.2-.8,0l-25.3-25.3s0,0,0-.1c-.2-.2-.1-.6,0-.8l25.4-25.4h0Z"/>
    </g>
    <rect class="st3" x="55.1" y="8.5" width="18.6" height="18.7" rx="1.1" ry="1.1" transform="translate(6.3 50.8) rotate(-45)"/>
    <rect class="st3" x="99" y="54.3" width="18.7" height="18.7" rx="1.1" ry="1.1" transform="translate(-13.3 95.2) rotate(-45)"/>
    <rect class="st3" x="54.8" y="99.8" width="18.6" height="18.7" rx="1.1" ry="1.1" transform="translate(-58.4 77.3) rotate(-45)"/>
    <g class="st5">
      <line class="st0" x1="64.3" y1="89.9" x2="73.8" y2="99.4"/>
      <line class="st0" x1="38.1" y1="64.4" x2="28.5" y2="73.9"/>
      <line class="st0" x1="54.1" y1="28.6" x2="63.6" y2="38.1"/>
      <line class="st0" x1="99.4" y1="54.1" x2="89.9" y2="63.6"/>
    </g>
    <rect class="st3" x="9.3" y="54.3" width="18.6" height="18.7" rx="1.1" ry="1.1" transform="translate(-39.5 31.8) rotate(-45)"/>
  </g>
  <g id="main">
    <path class="st1" d="M38,40.6c0-.2.2-.4.4-.4h3.9v1.6h5.8v-1.6h2.7c.2,0,.4.2.4.4v2.8c0,.2-.1.4-.3.4h-1.1c-.2,0-.4.2-.4.4v2.2c0,.1,0,.2.1.2l12.2,12.2.9-.9h2.8c.2,0,.4-.2.4-.4v-2.7c0-.1,0-.2.1-.2l7.8-7.8c0-.4.1-.8.1-1.2,0-3.4-2.8-6.2-6.2-6.2s-1.2,0-1.8.3c-.2,0-.4.1-.6.2h0s-.1,0-.2,0l.7-.4,11.9-7.1L120.3,7.4c.3-.2.7.2.5.5l-25,42.7-7,12-.3.5c0-.2.2-.4.2-.6.2-.6.3-1.2.3-1.8,0-3.4-2.8-6.2-6.2-6.2s-.8,0-1.2.1l-7.8,7.8s-.2.1-.2.1h-2.7c-.2,0-.4.2-.4.4v2.8l-.9.9,11.8,11.8s.2.1.2.1h3.2v-1.6h2.7c.2,0,.4.2.4.4v2.8c0,.2-.1.4-.3.4h-1.1c-.2,0-.4.2-.4.4v5.4h1.8v3.5c0,.2-.2.4-.4.4h-3.3v-1.7h-5.8v1.7h-3.3c-.2,0-.4-.2-.4-.4v-2.8h1.5v-4c0-.1,0-.2-.1-.2l-10.3-10.3s-.2-.1-.2-.1h-4.1v1.2h-1.2v1.2h-1.2v2.2c0,.2-.2.4-.4.4h-2.8c-.1,0-.2,0-.2.1l-20,20s-.1.2-.1.2v2.8c0,.2-.2.4-.4.4h-2.8c-.1,0-.2,0-.2.1l-15,15c-.1.1-.4.1-.5,0l-4.8-4.8c-.1-.1-.1-.4,0-.5l15.1-15.1s.1-.2.1-.2v-2.6c0-.2.2-.4.4-.4h2.6c.1,0,.2,0,.2-.1l20.1-20.1s.1-.2.1-.2v-2.6c0-.2.2-.4.4-.4h2.2v-1.2h1.2v-1.2h1v-4.2c0-.1,0-.2-.1-.2l-10.1-10.1s-.2-.1-.2-.1h-3.3v1.7h-3.3c-.2,0-.4-.2-.4-.4v-2.8h1.5v-5.8h-1.5v-3.8h0Z"/>
    <path class="st2" d="M69.2,50.9c9.5,1.7,7.9-8.3,7.9-8.3,0,0,3.5-5.2,17.9-10.1"/>
    <path class="st2" d="M77.4,59.1c-1.7-9.5,8.3-7.9,8.3-7.9,0,0,5.2-3.5,10.1-17.9"/>
    <line class="st2" x1="49.9" y1="72.6" x2="55.2" y2="77.9"/>
    <line class="st2" x1="26.1" y1="96.3" x2="31.5" y2="101.6"/>
  </g>
</svg>