<?xml version="1.0" encoding="UTF-8"?>
<svg id="svg" xmlns="http://www.w3.org/2000/svg" viewBox="0 0 128 128">
  <defs>
    <style>
      .cls-1 {
        stroke-width: .75px;
      }

      .cls-1, .cls-2, .cls-3 {
        stroke-miterlimit: 10;
      }

      .cls-1, .cls-2, .cls-3, .cls-4 {
        stroke: #000;
      }

      .cls-1, .cls-3, .cls-4 {
        fill: none;
      }

      .cls-2 {
        stroke-width: .4px;
      }

      .cls-2, .cls-5 {
        fill: #fff;
      }

      .cls-3, .cls-4 {
        isolation: isolate;
      }

      .cls-3, .cls-4, .cls-6 {
        opacity: .5;
      }

      .cls-4 {
        stroke-miterlimit: 10;
        stroke-width: .75px;
      }
    </style>
  </defs>
  <g id="BG">
    <g class="cls-6">
      <path class="cls-5" d="M27.79,54.09l-8.61-8.61c-.25-.25-.64-.25-.89,0L.19,63.6c-.25.25-.25.64,0,.89l18.11,18.11c.25.25.64.25.89,0l8.61-8.61c.21-.21.54-.25.79-.09.04.01.07.05.1.09l25.41,25.41c.25.25.25.64,0,.89l-8.61,8.61c-.25.25-.25.64,0,.89l18.02,18.02c.25.25.64.25.89,0l18.11-18.11c.25-.25.25-.64,0-.89l-8.59-8.6c-.22-.22-.25-.58-.05-.82,0-.02.04-.05.05-.07l10.39-10.39,2.61-2.63,12.4-12.4c.25-.25.64-.25.89,0l8.61,8.61c.25.25.64.25.89,0l18.12-18.12c.25-.25.25-.64,0-.89l-18.11-18.11c-.25-.25-.64-.25-.89,0l-8.61,8.61c-.2.2-.52.24-.77.1-.05-.02-.09-.05-.14-.1l-25.41-25.41c-.25-.25-.25-.64,0-.89l8.61-8.61c.25-.25.25-.64,0-.89L64.47.19c-.25-.25-.64-.25-.89,0l-18.11,18.11c-.25.25-.25.64,0,.89l8.61,8.61c.22.22.24.57.06.82,0,.02-.04.05-.06.07l-25.41,25.41c-.25.25-.64.25-.89,0h0,0ZM63.59,38.17c.25-.25.64-.25.89,0l1.19,1.19c.15.15.37.2.58.15.46-.1.93-.16,1.42-.16,3.39,0,6.17,2.76,6.17,6.17,0,.41-.04.81-.12,1.19l-.35.35,7.91,7.91.35-.35c.38-.09.79-.12,1.19-.12,3.39,0,6.17,2.76,6.17,6.17,0,.5-.05.97-.16,1.42-.05.21,0,.43.15.58l.82.82s.06.07.09.12c.15.24.12.56-.09.77l-25.42,25.43s-.05.05-.07.05c-.25.2-.59.17-.82-.05l-25.33-25.33s-.07-.07-.09-.1c-.16-.25-.12-.58.09-.79l25.42-25.43h.01Z"/>
    </g>
    <rect class="cls-4" x="55.13" y="8.46" width="18.65" height="18.66" rx="1.12" ry="1.12" transform="translate(6.3 50.79) rotate(-45)"/>
    <rect class="cls-4" x="99.01" y="54.29" width="18.66" height="18.66" rx="1.12" ry="1.12" transform="translate(-13.25 95.25) rotate(-45)"/>
    <rect class="cls-4" x="54.85" y="99.85" width="18.65" height="18.66" rx="1.12" ry="1.12" transform="translate(-58.41 77.37) rotate(-45)"/>
    <g class="cls-6">
      <line class="cls-1" x1="64.32" y1="89.88" x2="73.84" y2="99.39"/>
      <line class="cls-1" x1="38.08" y1="64.39" x2="28.57" y2="73.9"/>
      <line class="cls-1" x1="54.16" y1="28.6" x2="63.67" y2="38.11"/>
      <line class="cls-1" x1="99.43" y1="54.09" x2="89.9" y2="63.62"/>
    </g>
    <rect class="cls-4" x="9.3" y="54.3" width="18.65" height="18.66" rx="1.12" ry="1.12" transform="translate(-39.54 31.81) rotate(-45)"/>
  </g>
  <g id="main">
    <path class="cls-2" d="M38.06,40.59c0-.2.16-.36.36-.36h3.91v1.61h5.76v-1.61h2.67c.2,0,.36.16.36.36v2.79c0,.2-.15.36-.35.36h-1.09c-.2,0-.36.16-.36.36v2.19c0,.1.04.19.1.25l12.25,12.25.92-.92h2.81c.2,0,.36-.16.36-.36v-2.66c0-.1.04-.19.1-.25l7.85-7.85c.09-.38.12-.79.12-1.19,0-3.39-2.76-6.17-6.17-6.17-.61,0-1.19.09-1.76.26-.21.07-.41.15-.61.22h-.02c-.06.02-.12.05-.19.07l.72-.42,11.95-7.05L120.31,7.33c.31-.19.67.17.48.48l-24.99,42.72-7.01,11.99-.31.53c.07-.2.16-.41.22-.61.16-.57.26-1.15.26-1.76,0-3.39-2.76-6.17-6.17-6.17-.41,0-.8.04-1.19.12l-7.85,7.85c-.06.06-.16.1-.25.1h-2.66c-.2,0-.36.16-.36.36v2.81l-.92.92,11.86,11.86c.06.06.16.1.25.1h3.2v-1.61h2.67c.2,0,.36.16.36.36v2.79c0,.2-.15.36-.35.36h-1.09c-.2,0-.36.16-.36.36v5.41h1.8v3.46c0,.2-.16.36-.36.36h-3.29v-1.68h-5.77v1.68h-3.31c-.2,0-.36-.16-.36-.36v-2.84h1.51v-3.96c0-.1-.04-.19-.1-.25l-10.3-10.3c-.06-.06-.16-.1-.25-.1h-4.12v1.18h-1.24v1.24h-1.2v2.18c0,.2-.16.36-.36.36h-2.76c-.1,0-.19.05-.25.11l-20.02,20.03c-.06.06-.1.16-.1.25v2.77c0,.2-.16.36-.36.36h-2.77c-.1,0-.19.04-.25.1l-14.97,14.97c-.14.14-.36.14-.51,0l-4.82-4.82c-.14-.14-.14-.36,0-.51l15.07-15.07c.06-.06.1-.16.1-.25v-2.65c0-.2.16-.36.36-.36h2.65c.1,0,.19-.04.25-.1l20.15-20.15c.06-.06.1-.16.1-.25v-2.61c0-.2.16-.36.36-.36h2.18v-1.21h1.24v-1.23h1.03v-4.2c0-.1-.04-.19-.1-.25l-10.09-10.09c-.06-.06-.16-.1-.25-.1h-3.31v1.7h-3.31c-.2,0-.36-.16-.36-.36v-2.84h1.51v-5.78h-1.51v-3.75l.02-.04h.02Z"/>
    <path class="cls-3" d="M69.2,50.88c9.49,1.73,7.91-8.26,7.91-8.26,0,0,3.54-5.18,17.87-10.08"/>
    <path class="cls-3" d="M77.43,59.1c-1.73-9.49,8.26-7.91,8.26-7.91,0,0,5.18-3.54,10.08-17.87"/>
    <line class="cls-3" x1="49.9" y1="72.58" x2="55.21" y2="77.89"/>
    <line class="cls-3" x1="26.16" y1="96.32" x2="31.47" y2="101.63"/>
  </g>
</svg>