<?xml version="1.0" encoding="UTF-8"?>
<svg xmlns="http://www.w3.org/2000/svg" viewBox="0 0 128 128">
  <defs>
    <style>
      .cls-1, .cls-2, .cls-3, .cls-4 {
        stroke: #000;
        stroke-miterlimit: 10;
      }

      .cls-1, .cls-2, .cls-4 {
        fill: none;
      }

      .cls-1, .cls-2, .cls-5 {
        opacity: .5;
      }

      .cls-1, .cls-3, .cls-4 {
        stroke-width: .4px;
      }

      .cls-2 {
        stroke-width: .75px;
      }

      .cls-3 {
        fill: #fff;
      }
    </style>
  </defs>
  <g id="BG" class="cls-5">
    <g id="square" class="cls-5">
      <path class="cls-3" d="M30.42,52.57l4.94-4.94,4.38,4.38v-11.02h32.95l-9.19-9.19H30.42v20.77ZM77.96,40.99h9.67v47.9s-47.9,0-47.9,0v-32.78s-9.32,9.32-9.32,9.32v32.77h66.4V31.81s-20.63,0-20.63,0l5.48,5.48-3.71,3.71Z"/>
      <rect class="cls-4" x="39.26" y="40.64" width="48.56" height="48.56" transform="translate(-1.38 128.45) rotate(-90)"/>
      <path class="cls-3" d="M73.17,98.2h-9.4s-.1-.02-.1-.02h-12.74l12.76,12.77,12.75-12.75h-3.27ZM96.82,52.45v8.65l.1,13.35.02,3.23,12.55-12.55-12.67-12.68ZM63.69,19.3l-12.64,12.65,3.48.03,9.24.09,23.87,23.87v-12.67l-23.95-23.97ZM73.07,88.89h12.67l1.9-1.91v-12.66l-14.57,14.57ZM39.74,74.15v12.85l1.85,1.85h12.84l-14.69-14.7ZM42,40.99l-24.13,24.14,12.55,12.55v-5.42l.3-7.13,24.14-24.14h-12.86Z"/>
    </g>
    <g id="shadow">
      <polygon class="cls-2" points="39.74 74.15 54.43 88.85 45.26 88.85 39.74 83.33 39.74 74.15"/>
      <polygon class="cls-2" points="54.86 40.99 30.72 65.13 30.42 72.26 30.42 74.01 21.46 65.05 45.53 40.99 54.86 40.99"/>
      <polygon class="cls-2" points="63.77 98.19 73.17 98.2 63.89 107.48 54.59 98.18 63.67 98.18 63.77 98.19"/>
      <polygon class="cls-2" points="63.89 22.63 87.64 46.38 87.64 55.94 63.77 32.07 54.53 31.98 63.89 22.63"/>
      <polygon class="cls-2" points="73.07 88.89 87.64 74.32 87.64 83.72 82.48 88.89 73.07 88.89"/>
      <polygon class="cls-2" points="106.31 65.05 96.92 74.45 96.82 61.1 96.82 55.56 106.31 65.05"/>
    </g>
    <g id="sword">
      <path class="cls-3" d="M22.55,23.54c14.67,3.82,22.21,12.07,23.51,13.05.19.15.34.27.5.42l28.28,27.51h.01c.6.62,7.35,5.66,10.64,5.65v7.5l10.36-10.36v7.76s0,2.12,0,2.12h-2.05s-6.92,6.92-6.92,6.92l11.33,13.15h4.75s0,.85,0,.85h1.02v1.03s0,3.15,0,3.15h.86v3.93h-3.96v-1.03s-3.98,0-3.98,0v-.85h-1.02v-4.74l-13.14-11.36-6.94,6.94v2.05h-9.88s10.76-10.75,10.76-10.75h-7.5c0-3.29-4.98-10.2-5.64-10.64h-.01s-27.51-28.29-27.51-28.29c-.15-.16-.27-.31-.42-.5-.98-1.3-9.23-8.85-13.05-23.51Z"/>
    </g>
  </g>
  <g id="main">
    <g id="sword-2" data-name="sword">
      <path class="cls-3" d="M42.6,69.65c3.29,0,10.2-4.98,10.64-5.64h.01s28.28-27.53,28.28-27.53c.16-.15.31-.27.5-.42,1.3-.98,8.64-9.03,23.3-12.85-3.82,14.67-11.86,22.02-12.84,23.32-.15.19-.27.34-.42.5l-27.51,28.28h-.01c-.6.62-5.64,7.37-5.64,10.66h-8.33l10.97,10.97h-7.76s-2.12,0-2.12,0v-2.05l-6.92-6.92-13.15,11.33v4.75h-.85v1.02h-1.03s-3.15,0-3.15,0v.86h-3.93v-3.96h1.03s0-3.13,0-3.13v-.85h.85v-1.02h4.74s11.36-13.14,11.36-13.14l-6.94-6.94h-2.05v-9.88s10.97,10.97,10.97,10.97h0s0-8.32,0-8.32Z"/>
      <path class="cls-1" d="M51.56,85.97s-1.18-7.16,4.04-13.01"/>
      <path class="cls-1" d="M42.59,77s7.16,1.18,13.01-4.04"/>
      <path class="cls-1" d="M85.4,77.44s-7.16,1.18-13.01-4.04"/>
      <path class="cls-1" d="M76.43,86.41s1.18-7.16-4.04-13.01"/>
    </g>
  </g>
</svg>