<?xml version="1.0" encoding="UTF-8"?>
<svg id="_Слой_1" data-name="Слой_1" xmlns="http://www.w3.org/2000/svg" version="1.1" viewBox="0 0 128 128">
  <!-- Generator: Adobe Illustrator 29.3.1, SVG Export Plug-In . SVG Version: 2.1.0 Build 151)  -->
  <defs>
    <style>
      .st0 {
        stroke-width: .8px;
      }

      .st0, .st1, .st2, .st3 {
        stroke: #000;
        stroke-miterlimit: 10;
      }

      .st0, .st2 {
        isolation: isolate;
      }

      .st0, .st2, .st3 {
        fill: none;
      }

      .st0, .st2, .st4 {
        opacity: .5;
      }

      .st1 {
        fill: #fff;
      }

      .st1, .st2, .st3 {
        stroke-width: .4px;
      }
    </style>
  </defs>
  <g id="BG" class="st4">
    <g id="square" class="st4">
      <path class="st1" d="M17.7,46.5l6.9-6.9,6.1,6.1v-15.3h45.8l-12.8-12.8H17.7s0,28.9,0,28.9ZM83.9,30.4h13.5v66.6H30.7v-45.6l-13,13v45.6h92.4V17.7h-28.7l7.6,7.6-5.2,5.2h0Z"/>
      <rect class="st3" x="30" y="29.9" width="67.5" height="67.5"/>
      <path class="st1" d="M77.2,110h-13.2s-17.7,0-17.7,0l17.7,17.8,17.7-17.7h-4.5ZM110.1,46.4v30.6c.1,0,.2,4.5.2,4.5l17.5-17.5s-17.6-17.6-17.6-17.6ZM64,.3l-17.6,17.6h4.8s12.9.2,12.9.2l33.2,33.2v-17.6S64,.3,64,.3ZM77.1,97.1h17.6l2.6-2.7v-17.6s-20.3,20.3-20.3,20.3ZM30.7,76.6v17.9l2.6,2.6h17.9l-20.4-20.4ZM33.8,30.4L.3,64l17.5,17.5v-7.5l.4-9.9L51.7,30.4h-17.9Z"/>
    </g>
    <g id="shadow">
      <polygon class="st0" points="30.7 76.6 51.1 97 38.4 97 30.7 89.3 30.7 76.6"/>
      <polygon class="st0" points="51.7 30.4 18.2 64 17.7 73.9 17.7 76.4 5.3 63.9 38.8 30.4 51.7 30.4"/>
      <polygon class="st0" points="64.1 110 77.2 110 64.3 122.9 51.4 110 64 110 64.1 110"/>
      <polygon class="st0" points="64.3 4.9 97.3 37.9 97.3 51.2 64.1 18 51.3 17.9 64.3 4.9"/>
      <polygon class="st0" points="77.1 97.1 97.3 76.8 97.3 89.9 90.2 97.1 77.1 97.1"/>
      <polygon class="st0" points="123.3 63.9 110.2 77 110.1 58.4 110.1 50.7 123.3 63.9"/>
    </g>
    <g id="sword">
      <path class="st1" d="M6.8,6.2c20.4,5.3,30.9,16.8,32.7,18.2.3.2.5.4.7.6l39.3,38.3h0c.8.9,10.2,7.9,14.8,7.9v10.4l14.4-14.4v13.7h-2.9l-9.6,9.6,15.8,18.3h6.6v1.2h1.4v5.8h1.2v5.5h-5.5v-1.4h-5.5v-1.2h-1.4v-6.6l-18.3-15.8-9.7,9.7v2.9h-13.7l15-15h-10.4c0-4.6-6.9-14.2-7.8-14.8h0L25.5,39.6c-.2-.2-.4-.4-.6-.7-1.4-1.8-12.8-12.3-18.2-32.7Z"/>
    </g>
  </g>
  <g id="main">
    <g id="sword-2">
      <path class="st1" d="M34.7,70.3c4.6,0,14.2-6.9,14.8-7.8h0l39.3-38.3c.2-.2.4-.4.7-.6,1.8-1.4,12-12.6,32.4-17.9-5.3,20.4-16.5,30.6-17.9,32.4-.2.3-.4.5-.6.7l-38.3,39.3h0c-.8.9-7.8,10.3-7.8,14.8h-11.6l15.3,15.3h-13.7v-2.9l-9.6-9.6-18.3,15.8v6.6h-1.2v1.4h-5.8v1.2h-5.5v-5.5h1.4v-5.5h1.2v-1.4h6.6l15.8-18.3-9.7-9.7h-2.9v-13.7l15.3,15.3h0v-11.6h0Z"/>
      <path class="st2" d="M47.1,93s-1.6-10,5.6-18.1"/>
      <path class="st2" d="M34.7,80.5s10,1.6,18.1-5.6"/>
      <path class="st2" d="M94.2,81.1s-10,1.6-18.1-5.6"/>
      <path class="st2" d="M81.7,93.6s1.6-10-5.6-18.1"/>
    </g>
  </g>
</svg>